G04 #@! TF.FileFunction,Soldermask,Bot*
%FSLAX46Y46*%
G04 Gerber Fmt 4.6, Leading zero omitted, Abs format (unit mm)*
G04 Created by KiCad (PCBNEW 4.0.6) date 10/30/17 03:38:26*
%MOMM*%
%LPD*%
G01*
G04 APERTURE LIST*
%ADD10C,0.100000*%
%ADD11R,1.700000X1.700000*%
%ADD12O,1.700000X1.700000*%
%ADD13C,1.400000*%
%ADD14O,1.400000X1.400000*%
%ADD15R,1.600000X1.600000*%
%ADD16O,1.600000X1.600000*%
%ADD17R,1.727200X2.032000*%
%ADD18O,1.727200X2.032000*%
%ADD19C,3.000000*%
%ADD20C,1.700000*%
%ADD21C,4.000000*%
%ADD22C,1.050000*%
%ADD23C,1.300000*%
%ADD24C,1.020000*%
%ADD25C,3.200000*%
%ADD26C,1.600000*%
G04 APERTURE END LIST*
D10*
D11*
X79000000Y30250000D03*
D12*
X81540000Y30250000D03*
X84080000Y30250000D03*
X86620000Y30250000D03*
X89160000Y30250000D03*
D11*
X87250000Y26000000D03*
D12*
X84710000Y26000000D03*
D13*
X44500000Y44250000D03*
D14*
X44500000Y46790000D03*
D15*
X89625000Y37125000D03*
D16*
X82005000Y44745000D03*
X89625000Y39665000D03*
X82005000Y42205000D03*
X89625000Y42205000D03*
X82005000Y39665000D03*
X89625000Y44745000D03*
X82005000Y37125000D03*
D17*
X16000000Y6000000D03*
D18*
X18540000Y6000000D03*
X21080000Y6000000D03*
X23620000Y6000000D03*
X26160000Y6000000D03*
D17*
X16000000Y2000000D03*
D18*
X18540000Y2000000D03*
X21080000Y2000000D03*
X23620000Y2000000D03*
X26160000Y2000000D03*
D11*
X72750000Y89500000D03*
D12*
X72750000Y92040000D03*
D11*
X43000000Y66000000D03*
D12*
X43000000Y68540000D03*
D11*
X45000000Y40750000D03*
D12*
X42460000Y40750000D03*
D11*
X58930000Y40860000D03*
D12*
X58930000Y38320000D03*
X58930000Y35780000D03*
D11*
X35050000Y61950000D03*
D12*
X32510000Y61950000D03*
X29970000Y61950000D03*
X27430000Y61950000D03*
X24890000Y61950000D03*
D11*
X2750000Y46750000D03*
D12*
X2750000Y49290000D03*
X2750000Y51830000D03*
D11*
X20400000Y114800000D03*
D12*
X20400000Y112260000D03*
D19*
X66500000Y67140000D03*
X49500000Y67140000D03*
X70500000Y100160000D03*
X45500000Y100160000D03*
D11*
X46570000Y95000000D03*
D20*
X49110000Y95000000D03*
X46570000Y92460000D03*
X49110000Y92460000D03*
X46570000Y89920000D03*
X49110000Y89920000D03*
X46570000Y87380000D03*
X49110000Y87380000D03*
X46570000Y84840000D03*
X49110000Y84840000D03*
X46570000Y82300000D03*
X49110000Y82300000D03*
X46570000Y79760000D03*
X49110000Y79760000D03*
X46570000Y77220000D03*
X49110000Y77220000D03*
X46570000Y74680000D03*
X49110000Y74680000D03*
X46570000Y72140000D03*
X49110000Y72140000D03*
D11*
X66890000Y95000000D03*
D20*
X69430000Y95000000D03*
X66890000Y92460000D03*
X69430000Y92460000D03*
X66890000Y89920000D03*
X69430000Y89920000D03*
X66890000Y87380000D03*
X69430000Y87380000D03*
X66890000Y84840000D03*
X69430000Y84840000D03*
X66890000Y82300000D03*
X69430000Y82300000D03*
X66890000Y79760000D03*
X69430000Y79760000D03*
X66890000Y77220000D03*
X69430000Y77220000D03*
X66890000Y74680000D03*
X69430000Y74680000D03*
X66890000Y72140000D03*
X69430000Y72140000D03*
D11*
X52000000Y53500000D03*
D12*
X52000000Y56040000D03*
X52000000Y58580000D03*
D20*
X85230000Y13250000D03*
X87770000Y13250000D03*
D13*
X84625000Y48235000D03*
X86625000Y48235000D03*
X76735000Y56125000D03*
X76735000Y58125000D03*
X94515000Y56125000D03*
X94515000Y58125000D03*
D20*
X6900000Y35080000D03*
X4360000Y35080000D03*
X6900000Y32540000D03*
X4360000Y32540000D03*
X6900000Y30000000D03*
X4360000Y30000000D03*
X6900000Y27460000D03*
X4360000Y27460000D03*
X6900000Y24920000D03*
X4360000Y24920000D03*
D21*
X46500000Y30000000D03*
X9000000Y8350000D03*
X9000000Y51650000D03*
D22*
X80070000Y2160000D03*
X81340000Y2160000D03*
X82610000Y2160000D03*
X83880000Y2160000D03*
D11*
X78000000Y71000000D03*
D12*
X80540000Y71000000D03*
X83080000Y71000000D03*
X85620000Y71000000D03*
X88160000Y71000000D03*
X90700000Y71000000D03*
X93240000Y71000000D03*
D11*
X93000000Y97000000D03*
D12*
X90460000Y97000000D03*
X87920000Y97000000D03*
X85380000Y97000000D03*
X82840000Y97000000D03*
X80300000Y97000000D03*
X77760000Y97000000D03*
D23*
X75000000Y8000000D03*
X75000000Y10000000D03*
X75000000Y12000000D03*
X75000000Y14000000D03*
X75000000Y16000000D03*
X75000000Y18000000D03*
X75000000Y20000000D03*
X75000000Y22000000D03*
X75000000Y24000000D03*
X75000000Y26000000D03*
X53000000Y26000000D03*
X53000000Y24000000D03*
X53000000Y22000000D03*
X53000000Y20000000D03*
X53000000Y18000000D03*
X53000000Y16000000D03*
X53000000Y14000000D03*
X53000000Y12000000D03*
X53000000Y10000000D03*
X53000000Y8000000D03*
D20*
X13200000Y111800000D03*
X13200000Y109260000D03*
X13200000Y106720000D03*
X13200000Y104180000D03*
X13200000Y101640000D03*
D11*
X64250000Y47000000D03*
D12*
X66790000Y47000000D03*
X69330000Y47000000D03*
X71870000Y47000000D03*
D19*
X68060000Y58000000D03*
D24*
X32135000Y98890000D03*
X30865000Y98890000D03*
X30865000Y98890000D03*
X32135000Y98890000D03*
X32135000Y98890000D03*
X30865000Y98890000D03*
X30865000Y98890000D03*
X32135000Y98890000D03*
D20*
X23880000Y114130000D03*
X23880000Y111590000D03*
X23880000Y109050000D03*
X23880000Y106510000D03*
X23880000Y103970000D03*
X23880000Y101430000D03*
X23880000Y98890000D03*
X23880000Y96350000D03*
X23880000Y93810000D03*
X23880000Y91270000D03*
X23880000Y88730000D03*
X23880000Y86190000D03*
X23880000Y83650000D03*
X23880000Y81110000D03*
X23880000Y78570000D03*
X23880000Y76030000D03*
X23880000Y73490000D03*
X23880000Y70950000D03*
X23880000Y68410000D03*
X23880000Y65870000D03*
X28960000Y65870000D03*
X31500000Y65870000D03*
X34040000Y65870000D03*
X31500000Y81110000D03*
X34040000Y81110000D03*
X31500000Y78570000D03*
X34040000Y78570000D03*
X31500000Y76030000D03*
X34040000Y76030000D03*
X28960000Y73490000D03*
X31500000Y73490000D03*
X34040000Y73490000D03*
X39120000Y65870000D03*
X39120000Y68410000D03*
X39120000Y70950000D03*
X39120000Y73490000D03*
X39120000Y76030000D03*
X39120000Y78570000D03*
X39120000Y81110000D03*
X39120000Y83650000D03*
X39120000Y86190000D03*
X39120000Y88730000D03*
X39120000Y91270000D03*
X39120000Y93810000D03*
X39120000Y96350000D03*
X39120000Y98890000D03*
X39120000Y101430000D03*
X39120000Y103970000D03*
X39120000Y106510000D03*
X39120000Y109050000D03*
X39120000Y111590000D03*
X39120000Y114130000D03*
D11*
X39090000Y2920000D03*
D12*
X41630000Y2920000D03*
X44170000Y2920000D03*
X46710000Y2920000D03*
D11*
X63240000Y22200000D03*
D12*
X63240000Y19660000D03*
X63240000Y17120000D03*
X63240000Y14580000D03*
X63240000Y12040000D03*
D11*
X42910000Y114120000D03*
D12*
X42910000Y111580000D03*
X42910000Y109040000D03*
X42910000Y106500000D03*
X42910000Y103960000D03*
D25*
X3000000Y3000000D03*
X94000000Y114000000D03*
X51760000Y111880000D03*
X50000000Y46000000D03*
X3000000Y114000000D03*
X94000000Y3000000D03*
D15*
X66790000Y39870000D03*
D26*
X68790000Y39870000D03*
D15*
X36350000Y8600000D03*
D26*
X36350000Y10600000D03*
D11*
X43010000Y77110000D03*
D12*
X43010000Y79650000D03*
X43010000Y82190000D03*
X43010000Y84730000D03*
X43010000Y87270000D03*
X43010000Y89810000D03*
X43010000Y92350000D03*
D11*
X64410000Y109980000D03*
D12*
X61870000Y109980000D03*
X59330000Y109980000D03*
M02*
