G04 #@! TF.FileFunction,Paste,Top*
%FSLAX46Y46*%
G04 Gerber Fmt 4.6, Leading zero omitted, Abs format (unit mm)*
G04 Created by KiCad (PCBNEW 4.0.6) date 10/30/17 03:38:26*
%MOMM*%
%LPD*%
G01*
G04 APERTURE LIST*
%ADD10C,0.100000*%
%ADD11R,0.650000X1.060000*%
%ADD12R,0.700000X1.300000*%
%ADD13R,0.350000X0.850000*%
%ADD14R,2.400000X1.650000*%
%ADD15R,0.650000X2.000000*%
%ADD16R,1.250000X1.000000*%
%ADD17R,1.000000X1.250000*%
%ADD18R,1.300000X0.700000*%
G04 APERTURE END LIST*
D10*
D11*
X16850000Y54300000D03*
X17800000Y54300000D03*
X18750000Y54300000D03*
X18750000Y56500000D03*
X16850000Y56500000D03*
X17800000Y56500000D03*
X32550000Y51900000D03*
X33500000Y51900000D03*
X34450000Y51900000D03*
X34450000Y54100000D03*
X32550000Y54100000D03*
X33500000Y54100000D03*
D12*
X19250000Y96600000D03*
X21150000Y96600000D03*
X60380000Y101290000D03*
X58480000Y101290000D03*
D13*
X46385000Y10395000D03*
X45735000Y10395000D03*
X45085000Y10395000D03*
X44435000Y10395000D03*
X44435000Y7445000D03*
X45085000Y7445000D03*
X45735000Y7445000D03*
X46385000Y7445000D03*
D14*
X45410000Y8920000D03*
D15*
X21150000Y102510000D03*
X20200000Y102510000D03*
X19250000Y102510000D03*
X19250000Y99090000D03*
X20200000Y99090000D03*
X21150000Y99090000D03*
X58480000Y95030000D03*
X59430000Y95030000D03*
X60380000Y95030000D03*
X60380000Y98450000D03*
X59430000Y98450000D03*
X58480000Y98450000D03*
D16*
X29720000Y1990000D03*
X29720000Y3990000D03*
X31880000Y1990000D03*
X31880000Y3990000D03*
X79625000Y40125000D03*
X79625000Y42125000D03*
X92625000Y37125000D03*
X92625000Y39125000D03*
X74840000Y2130000D03*
X74840000Y4130000D03*
X73500000Y68500000D03*
X73500000Y66500000D03*
D17*
X80500000Y93700000D03*
X78500000Y93700000D03*
D16*
X55290000Y58580000D03*
X55290000Y56580000D03*
X94500000Y20500000D03*
X94500000Y22500000D03*
D17*
X41000000Y47000000D03*
X39000000Y47000000D03*
X63800000Y40130000D03*
X61800000Y40130000D03*
X19000000Y106200000D03*
X21000000Y106200000D03*
D16*
X1250000Y37750000D03*
X1250000Y39750000D03*
X79750000Y36750000D03*
X79750000Y38750000D03*
X63570000Y95000000D03*
X63570000Y97000000D03*
X72000000Y97000000D03*
X72000000Y95000000D03*
X77140000Y2150000D03*
X77140000Y4150000D03*
D17*
X36600000Y114110000D03*
X34600000Y114110000D03*
X16600000Y52800000D03*
X18600000Y52800000D03*
X32250000Y49500000D03*
X34250000Y49500000D03*
D16*
X15000000Y56800000D03*
X15000000Y54800000D03*
X29700000Y54200000D03*
X29700000Y52200000D03*
D17*
X29000000Y9000000D03*
X31000000Y9000000D03*
D12*
X40950000Y44750000D03*
X39050000Y44750000D03*
X79200000Y21750000D03*
X77300000Y21750000D03*
D18*
X94625000Y37175000D03*
X94625000Y39075000D03*
X63750000Y35190000D03*
X63750000Y37090000D03*
X61730000Y35190000D03*
X61730000Y37090000D03*
X92625000Y41175000D03*
X92625000Y43075000D03*
D12*
X45110000Y12700000D03*
X47010000Y12700000D03*
X41410000Y12690000D03*
X43310000Y12690000D03*
D18*
X42140000Y10370000D03*
X42140000Y8470000D03*
M02*
