G04 #@! TF.FileFunction,Legend,Bot*
%FSLAX46Y46*%
G04 Gerber Fmt 4.6, Leading zero omitted, Abs format (unit mm)*
G04 Created by KiCad (PCBNEW 4.0.6) date 10/30/17 03:38:26*
%MOMM*%
%LPD*%
G01*
G04 APERTURE LIST*
%ADD10C,0.100000*%
%ADD11C,0.300000*%
%ADD12C,0.254000*%
%ADD13R,1.700000X1.700000*%
%ADD14O,1.700000X1.700000*%
%ADD15C,1.400000*%
%ADD16O,1.400000X1.400000*%
%ADD17R,1.600000X1.600000*%
%ADD18O,1.600000X1.600000*%
%ADD19R,1.727200X2.032000*%
%ADD20O,1.727200X2.032000*%
%ADD21C,3.000000*%
%ADD22C,1.700000*%
%ADD23C,4.000000*%
%ADD24C,1.050000*%
%ADD25C,1.300000*%
%ADD26C,1.020000*%
%ADD27C,3.200000*%
%ADD28C,1.600000*%
G04 APERTURE END LIST*
D10*
D11*
X38335000Y8218572D02*
X38263571Y8361429D01*
X38263571Y8575715D01*
X38335000Y8790000D01*
X38477857Y8932858D01*
X38620714Y9004286D01*
X38906429Y9075715D01*
X39120714Y9075715D01*
X39406429Y9004286D01*
X39549286Y8932858D01*
X39692143Y8790000D01*
X39763571Y8575715D01*
X39763571Y8432858D01*
X39692143Y8218572D01*
X39620714Y8147143D01*
X39120714Y8147143D01*
X39120714Y8432858D01*
X39763571Y7504286D02*
X38263571Y7504286D01*
X39763571Y6647143D01*
X38263571Y6647143D01*
X39763571Y5932857D02*
X38263571Y5932857D01*
X38263571Y5575714D01*
X38335000Y5361429D01*
X38477857Y5218571D01*
X38620714Y5147143D01*
X38906429Y5075714D01*
X39120714Y5075714D01*
X39406429Y5147143D01*
X39549286Y5218571D01*
X39692143Y5361429D01*
X39763571Y5575714D01*
X39763571Y5932857D01*
X40885000Y8218572D02*
X40813571Y8361429D01*
X40813571Y8575715D01*
X40885000Y8790000D01*
X41027857Y8932858D01*
X41170714Y9004286D01*
X41456429Y9075715D01*
X41670714Y9075715D01*
X41956429Y9004286D01*
X42099286Y8932858D01*
X42242143Y8790000D01*
X42313571Y8575715D01*
X42313571Y8432858D01*
X42242143Y8218572D01*
X42170714Y8147143D01*
X41670714Y8147143D01*
X41670714Y8432858D01*
X42313571Y7504286D02*
X40813571Y7504286D01*
X42313571Y6647143D01*
X40813571Y6647143D01*
X42313571Y5932857D02*
X40813571Y5932857D01*
X40813571Y5575714D01*
X40885000Y5361429D01*
X41027857Y5218571D01*
X41170714Y5147143D01*
X41456429Y5075714D01*
X41670714Y5075714D01*
X41956429Y5147143D01*
X42099286Y5218571D01*
X42242143Y5361429D01*
X42313571Y5575714D01*
X42313571Y5932857D01*
X43363571Y12004286D02*
X44863571Y11504286D01*
X43363571Y11004286D01*
X44720714Y9647143D02*
X44792143Y9718572D01*
X44863571Y9932858D01*
X44863571Y10075715D01*
X44792143Y10290000D01*
X44649286Y10432858D01*
X44506429Y10504286D01*
X44220714Y10575715D01*
X44006429Y10575715D01*
X43720714Y10504286D01*
X43577857Y10432858D01*
X43435000Y10290000D01*
X43363571Y10075715D01*
X43363571Y9932858D01*
X43435000Y9718572D01*
X43506429Y9647143D01*
X44863571Y9004286D02*
X43363571Y9004286D01*
X44077857Y9004286D02*
X44077857Y8147143D01*
X44863571Y8147143D02*
X43363571Y8147143D01*
X44863571Y6575714D02*
X44149286Y7075714D01*
X44863571Y7432857D02*
X43363571Y7432857D01*
X43363571Y6861429D01*
X43435000Y6718571D01*
X43506429Y6647143D01*
X43649286Y6575714D01*
X43863571Y6575714D01*
X44006429Y6647143D01*
X44077857Y6718571D01*
X44149286Y6861429D01*
X44149286Y7432857D01*
X43435000Y5147143D02*
X43363571Y5290000D01*
X43363571Y5504286D01*
X43435000Y5718571D01*
X43577857Y5861429D01*
X43720714Y5932857D01*
X44006429Y6004286D01*
X44220714Y6004286D01*
X44506429Y5932857D01*
X44649286Y5861429D01*
X44792143Y5718571D01*
X44863571Y5504286D01*
X44863571Y5361429D01*
X44792143Y5147143D01*
X44720714Y5075714D01*
X44220714Y5075714D01*
X44220714Y5361429D01*
X45913571Y12004286D02*
X47413571Y11504286D01*
X45913571Y11004286D01*
X47270714Y9647143D02*
X47342143Y9718572D01*
X47413571Y9932858D01*
X47413571Y10075715D01*
X47342143Y10290000D01*
X47199286Y10432858D01*
X47056429Y10504286D01*
X46770714Y10575715D01*
X46556429Y10575715D01*
X46270714Y10504286D01*
X46127857Y10432858D01*
X45985000Y10290000D01*
X45913571Y10075715D01*
X45913571Y9932858D01*
X45985000Y9718572D01*
X46056429Y9647143D01*
X47413571Y9004286D02*
X45913571Y9004286D01*
X46627857Y9004286D02*
X46627857Y8147143D01*
X47413571Y8147143D02*
X45913571Y8147143D01*
X47413571Y6575714D02*
X46699286Y7075714D01*
X47413571Y7432857D02*
X45913571Y7432857D01*
X45913571Y6861429D01*
X45985000Y6718571D01*
X46056429Y6647143D01*
X46199286Y6575714D01*
X46413571Y6575714D01*
X46556429Y6647143D01*
X46627857Y6718571D01*
X46699286Y6861429D01*
X46699286Y7432857D01*
X45985000Y5147143D02*
X45913571Y5290000D01*
X45913571Y5504286D01*
X45985000Y5718571D01*
X46127857Y5861429D01*
X46270714Y5932857D01*
X46556429Y6004286D01*
X46770714Y6004286D01*
X47056429Y5932857D01*
X47199286Y5861429D01*
X47342143Y5718571D01*
X47413571Y5504286D01*
X47413571Y5361429D01*
X47342143Y5147143D01*
X47270714Y5075714D01*
X46770714Y5075714D01*
X46770714Y5361429D01*
X47868572Y114800000D02*
X48011429Y114871429D01*
X48225715Y114871429D01*
X48440000Y114800000D01*
X48582858Y114657143D01*
X48654286Y114514286D01*
X48725715Y114228571D01*
X48725715Y114014286D01*
X48654286Y113728571D01*
X48582858Y113585714D01*
X48440000Y113442857D01*
X48225715Y113371429D01*
X48082858Y113371429D01*
X47868572Y113442857D01*
X47797143Y113514286D01*
X47797143Y114014286D01*
X48082858Y114014286D01*
X47154286Y113371429D02*
X47154286Y114871429D01*
X46297143Y113371429D01*
X46297143Y114871429D01*
X45582857Y113371429D02*
X45582857Y114871429D01*
X45225714Y114871429D01*
X45011429Y114800000D01*
X44868571Y114657143D01*
X44797143Y114514286D01*
X44725714Y114228571D01*
X44725714Y114014286D01*
X44797143Y113728571D01*
X44868571Y113585714D01*
X45011429Y113442857D01*
X45225714Y113371429D01*
X45582857Y113371429D01*
X49511429Y112321429D02*
X49011429Y110821429D01*
X48511429Y112321429D01*
X47368572Y111821429D02*
X47368572Y110821429D01*
X48011429Y111821429D02*
X48011429Y111035714D01*
X47940001Y110892857D01*
X47797143Y110821429D01*
X47582858Y110821429D01*
X47440001Y110892857D01*
X47368572Y110964286D01*
X46725715Y110892857D02*
X46582858Y110821429D01*
X46297143Y110821429D01*
X46154286Y110892857D01*
X46082858Y111035714D01*
X46082858Y111107143D01*
X46154286Y111250000D01*
X46297143Y111321429D01*
X46511429Y111321429D01*
X46654286Y111392857D01*
X46725715Y111535714D01*
X46725715Y111607143D01*
X46654286Y111750000D01*
X46511429Y111821429D01*
X46297143Y111821429D01*
X46154286Y111750000D01*
X45440000Y110821429D02*
X45440000Y112321429D01*
X45440000Y111750000D02*
X45297143Y111821429D01*
X45011429Y111821429D01*
X44868572Y111750000D01*
X44797143Y111678571D01*
X44725714Y111535714D01*
X44725714Y111107143D01*
X44797143Y110964286D01*
X44868572Y110892857D01*
X45011429Y110821429D01*
X45297143Y110821429D01*
X45440000Y110892857D01*
X47868572Y109700000D02*
X48011429Y109771429D01*
X48225715Y109771429D01*
X48440000Y109700000D01*
X48582858Y109557143D01*
X48654286Y109414286D01*
X48725715Y109128571D01*
X48725715Y108914286D01*
X48654286Y108628571D01*
X48582858Y108485714D01*
X48440000Y108342857D01*
X48225715Y108271429D01*
X48082858Y108271429D01*
X47868572Y108342857D01*
X47797143Y108414286D01*
X47797143Y108914286D01*
X48082858Y108914286D01*
X47154286Y108271429D02*
X47154286Y109771429D01*
X46297143Y108271429D01*
X46297143Y109771429D01*
X45582857Y108271429D02*
X45582857Y109771429D01*
X45225714Y109771429D01*
X45011429Y109700000D01*
X44868571Y109557143D01*
X44797143Y109414286D01*
X44725714Y109128571D01*
X44725714Y108914286D01*
X44797143Y108628571D01*
X44868571Y108485714D01*
X45011429Y108342857D01*
X45225714Y108271429D01*
X45582857Y108271429D01*
X49797143Y107221429D02*
X49297143Y105721429D01*
X48797143Y107221429D01*
X48297143Y105721429D02*
X48297143Y107221429D01*
X47725715Y107221429D01*
X47582857Y107150000D01*
X47511429Y107078571D01*
X47440000Y106935714D01*
X47440000Y106721429D01*
X47511429Y106578571D01*
X47582857Y106507143D01*
X47725715Y106435714D01*
X48297143Y106435714D01*
X46582857Y105721429D02*
X46725715Y105792857D01*
X46797143Y105864286D01*
X46868572Y106007143D01*
X46868572Y106435714D01*
X46797143Y106578571D01*
X46725715Y106650000D01*
X46582857Y106721429D01*
X46368572Y106721429D01*
X46225715Y106650000D01*
X46154286Y106578571D01*
X46082857Y106435714D01*
X46082857Y106007143D01*
X46154286Y105864286D01*
X46225715Y105792857D01*
X46368572Y105721429D01*
X46582857Y105721429D01*
X45440000Y106507143D02*
X44940000Y106507143D01*
X44725714Y105721429D02*
X45440000Y105721429D01*
X45440000Y107221429D01*
X44725714Y107221429D01*
X47868572Y104600000D02*
X48011429Y104671429D01*
X48225715Y104671429D01*
X48440000Y104600000D01*
X48582858Y104457143D01*
X48654286Y104314286D01*
X48725715Y104028571D01*
X48725715Y103814286D01*
X48654286Y103528571D01*
X48582858Y103385714D01*
X48440000Y103242857D01*
X48225715Y103171429D01*
X48082858Y103171429D01*
X47868572Y103242857D01*
X47797143Y103314286D01*
X47797143Y103814286D01*
X48082858Y103814286D01*
X47154286Y103171429D02*
X47154286Y104671429D01*
X46297143Y103171429D01*
X46297143Y104671429D01*
X45582857Y103171429D02*
X45582857Y104671429D01*
X45225714Y104671429D01*
X45011429Y104600000D01*
X44868571Y104457143D01*
X44797143Y104314286D01*
X44725714Y104028571D01*
X44725714Y103814286D01*
X44797143Y103528571D01*
X44868571Y103385714D01*
X45011429Y103242857D01*
X45225714Y103171429D01*
X45582857Y103171429D01*
X15350000Y11328572D02*
X15278571Y11471429D01*
X15278571Y11685715D01*
X15350000Y11900000D01*
X15492857Y12042858D01*
X15635714Y12114286D01*
X15921429Y12185715D01*
X16135714Y12185715D01*
X16421429Y12114286D01*
X16564286Y12042858D01*
X16707143Y11900000D01*
X16778571Y11685715D01*
X16778571Y11542858D01*
X16707143Y11328572D01*
X16635714Y11257143D01*
X16135714Y11257143D01*
X16135714Y11542858D01*
X16778571Y10614286D02*
X15278571Y10614286D01*
X16778571Y9757143D01*
X15278571Y9757143D01*
X16778571Y9042857D02*
X15278571Y9042857D01*
X15278571Y8685714D01*
X15350000Y8471429D01*
X15492857Y8328571D01*
X15635714Y8257143D01*
X15921429Y8185714D01*
X16135714Y8185714D01*
X16421429Y8257143D01*
X16564286Y8328571D01*
X16707143Y8471429D01*
X16778571Y8685714D01*
X16778571Y9042857D01*
X17900000Y11328572D02*
X17828571Y11471429D01*
X17828571Y11685715D01*
X17900000Y11900000D01*
X18042857Y12042858D01*
X18185714Y12114286D01*
X18471429Y12185715D01*
X18685714Y12185715D01*
X18971429Y12114286D01*
X19114286Y12042858D01*
X19257143Y11900000D01*
X19328571Y11685715D01*
X19328571Y11542858D01*
X19257143Y11328572D01*
X19185714Y11257143D01*
X18685714Y11257143D01*
X18685714Y11542858D01*
X19328571Y10614286D02*
X17828571Y10614286D01*
X19328571Y9757143D01*
X17828571Y9757143D01*
X19328571Y9042857D02*
X17828571Y9042857D01*
X17828571Y8685714D01*
X17900000Y8471429D01*
X18042857Y8328571D01*
X18185714Y8257143D01*
X18471429Y8185714D01*
X18685714Y8185714D01*
X18971429Y8257143D01*
X19114286Y8328571D01*
X19257143Y8471429D01*
X19328571Y8685714D01*
X19328571Y9042857D01*
X20378571Y12042857D02*
X21878571Y11542857D01*
X20378571Y11042857D01*
X21735714Y9685714D02*
X21807143Y9757143D01*
X21878571Y9971429D01*
X21878571Y10114286D01*
X21807143Y10328571D01*
X21664286Y10471429D01*
X21521429Y10542857D01*
X21235714Y10614286D01*
X21021429Y10614286D01*
X20735714Y10542857D01*
X20592857Y10471429D01*
X20450000Y10328571D01*
X20378571Y10114286D01*
X20378571Y9971429D01*
X20450000Y9757143D01*
X20521429Y9685714D01*
X21735714Y8185714D02*
X21807143Y8257143D01*
X21878571Y8471429D01*
X21878571Y8614286D01*
X21807143Y8828571D01*
X21664286Y8971429D01*
X21521429Y9042857D01*
X21235714Y9114286D01*
X21021429Y9114286D01*
X20735714Y9042857D01*
X20592857Y8971429D01*
X20450000Y8828571D01*
X20378571Y8614286D01*
X20378571Y8471429D01*
X20450000Y8257143D01*
X20521429Y8185714D01*
X22928571Y9542856D02*
X22928571Y10257142D01*
X23642857Y10328571D01*
X23571429Y10257142D01*
X23500000Y10114285D01*
X23500000Y9757142D01*
X23571429Y9614285D01*
X23642857Y9542856D01*
X23785714Y9471428D01*
X24142857Y9471428D01*
X24285714Y9542856D01*
X24357143Y9614285D01*
X24428571Y9757142D01*
X24428571Y10114285D01*
X24357143Y10257142D01*
X24285714Y10328571D01*
X22928571Y9042857D02*
X24428571Y8542857D01*
X22928571Y8042857D01*
X25478571Y9542856D02*
X25478571Y10257142D01*
X26192857Y10328571D01*
X26121429Y10257142D01*
X26050000Y10114285D01*
X26050000Y9757142D01*
X26121429Y9614285D01*
X26192857Y9542856D01*
X26335714Y9471428D01*
X26692857Y9471428D01*
X26835714Y9542856D01*
X26907143Y9614285D01*
X26978571Y9757142D01*
X26978571Y10114285D01*
X26907143Y10257142D01*
X26835714Y10328571D01*
X25478571Y9042857D02*
X26978571Y8542857D01*
X25478571Y8042857D01*
X39928571Y37371429D02*
X40642857Y37371429D01*
X40642857Y38871429D01*
X39428571Y37371429D02*
X39428571Y38871429D01*
X38928571Y37800000D01*
X38428571Y38871429D01*
X38428571Y37371429D01*
X37714285Y37371429D02*
X37714285Y38871429D01*
X36857142Y37371429D01*
X36857142Y38871429D01*
X35071428Y37442857D02*
X34857142Y37371429D01*
X34499999Y37371429D01*
X34357142Y37442857D01*
X34285713Y37514286D01*
X34214285Y37657143D01*
X34214285Y37800000D01*
X34285713Y37942857D01*
X34357142Y38014286D01*
X34499999Y38085714D01*
X34785713Y38157143D01*
X34928571Y38228571D01*
X34999999Y38300000D01*
X35071428Y38442857D01*
X35071428Y38585714D01*
X34999999Y38728571D01*
X34928571Y38800000D01*
X34785713Y38871429D01*
X34428571Y38871429D01*
X34214285Y38800000D01*
X33000000Y37442857D02*
X33142857Y37371429D01*
X33428571Y37371429D01*
X33571428Y37442857D01*
X33642857Y37585714D01*
X33642857Y38157143D01*
X33571428Y38300000D01*
X33428571Y38371429D01*
X33142857Y38371429D01*
X33000000Y38300000D01*
X32928571Y38157143D01*
X32928571Y38014286D01*
X33642857Y37871429D01*
X32285714Y38371429D02*
X32285714Y37371429D01*
X32285714Y38228571D02*
X32214286Y38300000D01*
X32071428Y38371429D01*
X31857143Y38371429D01*
X31714286Y38300000D01*
X31642857Y38157143D01*
X31642857Y37371429D01*
X31000000Y37442857D02*
X30857143Y37371429D01*
X30571428Y37371429D01*
X30428571Y37442857D01*
X30357143Y37585714D01*
X30357143Y37657143D01*
X30428571Y37800000D01*
X30571428Y37871429D01*
X30785714Y37871429D01*
X30928571Y37942857D01*
X31000000Y38085714D01*
X31000000Y38157143D01*
X30928571Y38300000D01*
X30785714Y38371429D01*
X30571428Y38371429D01*
X30428571Y38300000D01*
X29499999Y37371429D02*
X29642857Y37442857D01*
X29714285Y37514286D01*
X29785714Y37657143D01*
X29785714Y38085714D01*
X29714285Y38228571D01*
X29642857Y38300000D01*
X29499999Y38371429D01*
X29285714Y38371429D01*
X29142857Y38300000D01*
X29071428Y38228571D01*
X28999999Y38085714D01*
X28999999Y37657143D01*
X29071428Y37514286D01*
X29142857Y37442857D01*
X29285714Y37371429D01*
X29499999Y37371429D01*
X28357142Y37371429D02*
X28357142Y38371429D01*
X28357142Y38085714D02*
X28285714Y38228571D01*
X28214285Y38300000D01*
X28071428Y38371429D01*
X27928571Y38371429D01*
X27428571Y37371429D02*
X27428571Y38871429D01*
X26857143Y38871429D01*
X26714285Y38800000D01*
X26642857Y38728571D01*
X26571428Y38585714D01*
X26571428Y38371429D01*
X26642857Y38228571D01*
X26714285Y38157143D01*
X26857143Y38085714D01*
X27428571Y38085714D01*
X25714285Y37371429D02*
X25857143Y37442857D01*
X25928571Y37514286D01*
X26000000Y37657143D01*
X26000000Y38085714D01*
X25928571Y38228571D01*
X25857143Y38300000D01*
X25714285Y38371429D01*
X25500000Y38371429D01*
X25357143Y38300000D01*
X25285714Y38228571D01*
X25214285Y38085714D01*
X25214285Y37657143D01*
X25285714Y37514286D01*
X25357143Y37442857D01*
X25500000Y37371429D01*
X25714285Y37371429D01*
X23928571Y37371429D02*
X23928571Y38871429D01*
X23928571Y37442857D02*
X24071428Y37371429D01*
X24357142Y37371429D01*
X24500000Y37442857D01*
X24571428Y37514286D01*
X24642857Y37657143D01*
X24642857Y38085714D01*
X24571428Y38228571D01*
X24500000Y38300000D01*
X24357142Y38371429D01*
X24071428Y38371429D01*
X23928571Y38300000D01*
X22071428Y37371429D02*
X22071428Y38871429D01*
X21500000Y38871429D01*
X21357142Y38800000D01*
X21285714Y38728571D01*
X21214285Y38585714D01*
X21214285Y38371429D01*
X21285714Y38228571D01*
X21357142Y38157143D01*
X21500000Y38085714D01*
X22071428Y38085714D01*
X20571428Y37371429D02*
X20571428Y38371429D01*
X20571428Y38085714D02*
X20500000Y38228571D01*
X20428571Y38300000D01*
X20285714Y38371429D01*
X20142857Y38371429D01*
X19428571Y37371429D02*
X19571429Y37442857D01*
X19642857Y37514286D01*
X19714286Y37657143D01*
X19714286Y38085714D01*
X19642857Y38228571D01*
X19571429Y38300000D01*
X19428571Y38371429D01*
X19214286Y38371429D01*
X19071429Y38300000D01*
X19000000Y38228571D01*
X18928571Y38085714D01*
X18928571Y37657143D01*
X19000000Y37514286D01*
X19071429Y37442857D01*
X19214286Y37371429D01*
X19428571Y37371429D01*
X18500000Y38371429D02*
X17928571Y38371429D01*
X18285714Y38871429D02*
X18285714Y37585714D01*
X18214286Y37442857D01*
X18071428Y37371429D01*
X17928571Y37371429D01*
X17214285Y37371429D02*
X17357143Y37442857D01*
X17428571Y37514286D01*
X17500000Y37657143D01*
X17500000Y38085714D01*
X17428571Y38228571D01*
X17357143Y38300000D01*
X17214285Y38371429D01*
X17000000Y38371429D01*
X16857143Y38300000D01*
X16785714Y38228571D01*
X16714285Y38085714D01*
X16714285Y37657143D01*
X16785714Y37514286D01*
X16857143Y37442857D01*
X17000000Y37371429D01*
X17214285Y37371429D01*
X15071428Y38371429D02*
X14714285Y37371429D01*
X14357143Y38371429D01*
X13000000Y37371429D02*
X13857143Y37371429D01*
X13428571Y37371429D02*
X13428571Y38871429D01*
X13571428Y38657143D01*
X13714286Y38514286D01*
X13857143Y38442857D01*
X12357143Y37514286D02*
X12285715Y37442857D01*
X12357143Y37371429D01*
X12428572Y37442857D01*
X12357143Y37514286D01*
X12357143Y37371429D01*
X11714286Y38728571D02*
X11642857Y38800000D01*
X11500000Y38871429D01*
X11142857Y38871429D01*
X11000000Y38800000D01*
X10928571Y38728571D01*
X10857143Y38585714D01*
X10857143Y38442857D01*
X10928571Y38228571D01*
X11785714Y37371429D01*
X10857143Y37371429D01*
X39857143Y36250000D02*
X40000000Y36321429D01*
X40214286Y36321429D01*
X40428571Y36250000D01*
X40571429Y36107143D01*
X40642857Y35964286D01*
X40714286Y35678571D01*
X40714286Y35464286D01*
X40642857Y35178571D01*
X40571429Y35035714D01*
X40428571Y34892857D01*
X40214286Y34821429D01*
X40071429Y34821429D01*
X39857143Y34892857D01*
X39785714Y34964286D01*
X39785714Y35464286D01*
X40071429Y35464286D01*
X38928571Y34821429D02*
X39071429Y34892857D01*
X39142857Y34964286D01*
X39214286Y35107143D01*
X39214286Y35535714D01*
X39142857Y35678571D01*
X39071429Y35750000D01*
X38928571Y35821429D01*
X38714286Y35821429D01*
X38571429Y35750000D01*
X38500000Y35678571D01*
X38428571Y35535714D01*
X38428571Y35107143D01*
X38500000Y34964286D01*
X38571429Y34892857D01*
X38714286Y34821429D01*
X38928571Y34821429D01*
X37571428Y34821429D02*
X37714286Y34892857D01*
X37785714Y34964286D01*
X37857143Y35107143D01*
X37857143Y35535714D01*
X37785714Y35678571D01*
X37714286Y35750000D01*
X37571428Y35821429D01*
X37357143Y35821429D01*
X37214286Y35750000D01*
X37142857Y35678571D01*
X37071428Y35535714D01*
X37071428Y35107143D01*
X37142857Y34964286D01*
X37214286Y34892857D01*
X37357143Y34821429D01*
X37571428Y34821429D01*
X35785714Y34821429D02*
X35785714Y36321429D01*
X35785714Y34892857D02*
X35928571Y34821429D01*
X36214285Y34821429D01*
X36357143Y34892857D01*
X36428571Y34964286D01*
X36500000Y35107143D01*
X36500000Y35535714D01*
X36428571Y35678571D01*
X36357143Y35750000D01*
X36214285Y35821429D01*
X35928571Y35821429D01*
X35785714Y35750000D01*
X33928571Y34821429D02*
X33928571Y36321429D01*
X33428571Y35250000D01*
X32928571Y36321429D01*
X32928571Y34821429D01*
X31642857Y34892857D02*
X31785714Y34821429D01*
X32071428Y34821429D01*
X32214285Y34892857D01*
X32285714Y35035714D01*
X32285714Y35607143D01*
X32214285Y35750000D01*
X32071428Y35821429D01*
X31785714Y35821429D01*
X31642857Y35750000D01*
X31571428Y35607143D01*
X31571428Y35464286D01*
X32285714Y35321429D01*
X30285714Y34821429D02*
X30285714Y35607143D01*
X30357143Y35750000D01*
X30500000Y35821429D01*
X30785714Y35821429D01*
X30928571Y35750000D01*
X30285714Y34892857D02*
X30428571Y34821429D01*
X30785714Y34821429D01*
X30928571Y34892857D01*
X31000000Y35035714D01*
X31000000Y35178571D01*
X30928571Y35321429D01*
X30785714Y35392857D01*
X30428571Y35392857D01*
X30285714Y35464286D01*
X29642857Y34892857D02*
X29500000Y34821429D01*
X29214285Y34821429D01*
X29071428Y34892857D01*
X29000000Y35035714D01*
X29000000Y35107143D01*
X29071428Y35250000D01*
X29214285Y35321429D01*
X29428571Y35321429D01*
X29571428Y35392857D01*
X29642857Y35535714D01*
X29642857Y35607143D01*
X29571428Y35750000D01*
X29428571Y35821429D01*
X29214285Y35821429D01*
X29071428Y35750000D01*
X27714285Y35821429D02*
X27714285Y34821429D01*
X28357142Y35821429D02*
X28357142Y35035714D01*
X28285714Y34892857D01*
X28142856Y34821429D01*
X27928571Y34821429D01*
X27785714Y34892857D01*
X27714285Y34964286D01*
X26999999Y34821429D02*
X26999999Y35821429D01*
X26999999Y35535714D02*
X26928571Y35678571D01*
X26857142Y35750000D01*
X26714285Y35821429D01*
X26571428Y35821429D01*
X25500000Y34892857D02*
X25642857Y34821429D01*
X25928571Y34821429D01*
X26071428Y34892857D01*
X26142857Y35035714D01*
X26142857Y35607143D01*
X26071428Y35750000D01*
X25928571Y35821429D01*
X25642857Y35821429D01*
X25500000Y35750000D01*
X25428571Y35607143D01*
X25428571Y35464286D01*
X26142857Y35321429D01*
X23642857Y34821429D02*
X23642857Y36321429D01*
X23285714Y36321429D01*
X23071429Y36250000D01*
X22928571Y36107143D01*
X22857143Y35964286D01*
X22785714Y35678571D01*
X22785714Y35464286D01*
X22857143Y35178571D01*
X22928571Y35035714D01*
X23071429Y34892857D01*
X23285714Y34821429D01*
X23642857Y34821429D01*
X21571429Y34892857D02*
X21714286Y34821429D01*
X22000000Y34821429D01*
X22142857Y34892857D01*
X22214286Y35035714D01*
X22214286Y35607143D01*
X22142857Y35750000D01*
X22000000Y35821429D01*
X21714286Y35821429D01*
X21571429Y35750000D01*
X21500000Y35607143D01*
X21500000Y35464286D01*
X22214286Y35321429D01*
X20928572Y34892857D02*
X20785715Y34821429D01*
X20500000Y34821429D01*
X20357143Y34892857D01*
X20285715Y35035714D01*
X20285715Y35107143D01*
X20357143Y35250000D01*
X20500000Y35321429D01*
X20714286Y35321429D01*
X20857143Y35392857D01*
X20928572Y35535714D01*
X20928572Y35607143D01*
X20857143Y35750000D01*
X20714286Y35821429D01*
X20500000Y35821429D01*
X20357143Y35750000D01*
X19642857Y34821429D02*
X19642857Y35821429D01*
X19642857Y36321429D02*
X19714286Y36250000D01*
X19642857Y36178571D01*
X19571429Y36250000D01*
X19642857Y36321429D01*
X19642857Y36178571D01*
X18285714Y35821429D02*
X18285714Y34607143D01*
X18357143Y34464286D01*
X18428571Y34392857D01*
X18571428Y34321429D01*
X18785714Y34321429D01*
X18928571Y34392857D01*
X18285714Y34892857D02*
X18428571Y34821429D01*
X18714285Y34821429D01*
X18857143Y34892857D01*
X18928571Y34964286D01*
X19000000Y35107143D01*
X19000000Y35535714D01*
X18928571Y35678571D01*
X18857143Y35750000D01*
X18714285Y35821429D01*
X18428571Y35821429D01*
X18285714Y35750000D01*
X17571428Y35821429D02*
X17571428Y34821429D01*
X17571428Y35678571D02*
X17500000Y35750000D01*
X17357142Y35821429D01*
X17142857Y35821429D01*
X17000000Y35750000D01*
X16928571Y35607143D01*
X16928571Y34821429D01*
X16142857Y34892857D02*
X16142857Y34821429D01*
X16214285Y34678571D01*
X16285714Y34607143D01*
X13642856Y34821429D02*
X14357142Y34821429D01*
X14357142Y36321429D01*
X12428570Y34821429D02*
X13142856Y34821429D01*
X13142856Y36321429D01*
X11071427Y34964286D02*
X11142856Y34892857D01*
X11357142Y34821429D01*
X11499999Y34821429D01*
X11714284Y34892857D01*
X11857142Y35035714D01*
X11928570Y35178571D01*
X11999999Y35464286D01*
X11999999Y35678571D01*
X11928570Y35964286D01*
X11857142Y36107143D01*
X11714284Y36250000D01*
X11499999Y36321429D01*
X11357142Y36321429D01*
X11142856Y36250000D01*
X11071427Y36178571D01*
X10428570Y34964286D02*
X10357142Y34892857D01*
X10428570Y34821429D01*
X10499999Y34892857D01*
X10428570Y34964286D01*
X10428570Y34821429D01*
X40642857Y32271429D02*
X40642857Y33771429D01*
X39785714Y32271429D01*
X39785714Y33771429D01*
X38642857Y33771429D02*
X38642857Y32700000D01*
X38714285Y32485714D01*
X38857142Y32342857D01*
X39071428Y32271429D01*
X39214285Y32271429D01*
X38142857Y33771429D02*
X37285714Y33771429D01*
X37714285Y32271429D02*
X37714285Y33771429D01*
X35642857Y32842857D02*
X34500000Y32842857D01*
X32714286Y33628571D02*
X32642857Y33700000D01*
X32500000Y33771429D01*
X32142857Y33771429D01*
X32000000Y33700000D01*
X31928571Y33628571D01*
X31857143Y33485714D01*
X31857143Y33342857D01*
X31928571Y33128571D01*
X32785714Y32271429D01*
X31857143Y32271429D01*
X30928572Y33771429D02*
X30785715Y33771429D01*
X30642858Y33700000D01*
X30571429Y33628571D01*
X30500000Y33485714D01*
X30428572Y33200000D01*
X30428572Y32842857D01*
X30500000Y32557143D01*
X30571429Y32414286D01*
X30642858Y32342857D01*
X30785715Y32271429D01*
X30928572Y32271429D01*
X31071429Y32342857D01*
X31142858Y32414286D01*
X31214286Y32557143D01*
X31285715Y32842857D01*
X31285715Y33200000D01*
X31214286Y33485714D01*
X31142858Y33628571D01*
X31071429Y33700000D01*
X30928572Y33771429D01*
X29000001Y32271429D02*
X29857144Y32271429D01*
X29428572Y32271429D02*
X29428572Y33771429D01*
X29571429Y33557143D01*
X29714287Y33414286D01*
X29857144Y33342857D01*
X28500001Y33771429D02*
X27500001Y33771429D01*
X28142858Y32271429D01*
D12*
G36*
X64873000Y71627000D02*
X52127000Y71627000D01*
X52127000Y105873000D01*
X64873000Y105873000D01*
X64873000Y71627000D01*
X64873000Y71627000D01*
G37*
X64873000Y71627000D02*
X52127000Y71627000D01*
X52127000Y105873000D01*
X64873000Y105873000D01*
X64873000Y71627000D01*
%LPC*%
D13*
X79000000Y30250000D03*
D14*
X81540000Y30250000D03*
X84080000Y30250000D03*
X86620000Y30250000D03*
X89160000Y30250000D03*
D13*
X87250000Y26000000D03*
D14*
X84710000Y26000000D03*
D15*
X44500000Y44250000D03*
D16*
X44500000Y46790000D03*
D17*
X89625000Y37125000D03*
D18*
X82005000Y44745000D03*
X89625000Y39665000D03*
X82005000Y42205000D03*
X89625000Y42205000D03*
X82005000Y39665000D03*
X89625000Y44745000D03*
X82005000Y37125000D03*
D19*
X16000000Y6000000D03*
D20*
X18540000Y6000000D03*
X21080000Y6000000D03*
X23620000Y6000000D03*
X26160000Y6000000D03*
D19*
X16000000Y2000000D03*
D20*
X18540000Y2000000D03*
X21080000Y2000000D03*
X23620000Y2000000D03*
X26160000Y2000000D03*
D13*
X72750000Y89500000D03*
D14*
X72750000Y92040000D03*
D13*
X43000000Y66000000D03*
D14*
X43000000Y68540000D03*
D13*
X45000000Y40750000D03*
D14*
X42460000Y40750000D03*
D13*
X58930000Y40860000D03*
D14*
X58930000Y38320000D03*
X58930000Y35780000D03*
D13*
X35050000Y61950000D03*
D14*
X32510000Y61950000D03*
X29970000Y61950000D03*
X27430000Y61950000D03*
X24890000Y61950000D03*
D13*
X2750000Y46750000D03*
D14*
X2750000Y49290000D03*
X2750000Y51830000D03*
D13*
X20400000Y114800000D03*
D14*
X20400000Y112260000D03*
D21*
X66500000Y67140000D03*
X49500000Y67140000D03*
X70500000Y100160000D03*
X45500000Y100160000D03*
D13*
X46570000Y95000000D03*
D22*
X49110000Y95000000D03*
X46570000Y92460000D03*
X49110000Y92460000D03*
X46570000Y89920000D03*
X49110000Y89920000D03*
X46570000Y87380000D03*
X49110000Y87380000D03*
X46570000Y84840000D03*
X49110000Y84840000D03*
X46570000Y82300000D03*
X49110000Y82300000D03*
X46570000Y79760000D03*
X49110000Y79760000D03*
X46570000Y77220000D03*
X49110000Y77220000D03*
X46570000Y74680000D03*
X49110000Y74680000D03*
X46570000Y72140000D03*
X49110000Y72140000D03*
D13*
X66890000Y95000000D03*
D22*
X69430000Y95000000D03*
X66890000Y92460000D03*
X69430000Y92460000D03*
X66890000Y89920000D03*
X69430000Y89920000D03*
X66890000Y87380000D03*
X69430000Y87380000D03*
X66890000Y84840000D03*
X69430000Y84840000D03*
X66890000Y82300000D03*
X69430000Y82300000D03*
X66890000Y79760000D03*
X69430000Y79760000D03*
X66890000Y77220000D03*
X69430000Y77220000D03*
X66890000Y74680000D03*
X69430000Y74680000D03*
X66890000Y72140000D03*
X69430000Y72140000D03*
D13*
X52000000Y53500000D03*
D14*
X52000000Y56040000D03*
X52000000Y58580000D03*
D22*
X85230000Y13250000D03*
X87770000Y13250000D03*
D15*
X84625000Y48235000D03*
X86625000Y48235000D03*
X76735000Y56125000D03*
X76735000Y58125000D03*
X94515000Y56125000D03*
X94515000Y58125000D03*
D22*
X6900000Y35080000D03*
X4360000Y35080000D03*
X6900000Y32540000D03*
X4360000Y32540000D03*
X6900000Y30000000D03*
X4360000Y30000000D03*
X6900000Y27460000D03*
X4360000Y27460000D03*
X6900000Y24920000D03*
X4360000Y24920000D03*
D23*
X46500000Y30000000D03*
X9000000Y8350000D03*
X9000000Y51650000D03*
D24*
X80070000Y2160000D03*
X81340000Y2160000D03*
X82610000Y2160000D03*
X83880000Y2160000D03*
D13*
X78000000Y71000000D03*
D14*
X80540000Y71000000D03*
X83080000Y71000000D03*
X85620000Y71000000D03*
X88160000Y71000000D03*
X90700000Y71000000D03*
X93240000Y71000000D03*
D13*
X93000000Y97000000D03*
D14*
X90460000Y97000000D03*
X87920000Y97000000D03*
X85380000Y97000000D03*
X82840000Y97000000D03*
X80300000Y97000000D03*
X77760000Y97000000D03*
D25*
X75000000Y8000000D03*
X75000000Y10000000D03*
X75000000Y12000000D03*
X75000000Y14000000D03*
X75000000Y16000000D03*
X75000000Y18000000D03*
X75000000Y20000000D03*
X75000000Y22000000D03*
X75000000Y24000000D03*
X75000000Y26000000D03*
X53000000Y26000000D03*
X53000000Y24000000D03*
X53000000Y22000000D03*
X53000000Y20000000D03*
X53000000Y18000000D03*
X53000000Y16000000D03*
X53000000Y14000000D03*
X53000000Y12000000D03*
X53000000Y10000000D03*
X53000000Y8000000D03*
D22*
X13200000Y111800000D03*
X13200000Y109260000D03*
X13200000Y106720000D03*
X13200000Y104180000D03*
X13200000Y101640000D03*
D13*
X64250000Y47000000D03*
D14*
X66790000Y47000000D03*
X69330000Y47000000D03*
X71870000Y47000000D03*
D21*
X68060000Y58000000D03*
D26*
X32135000Y98890000D03*
X30865000Y98890000D03*
X30865000Y98890000D03*
X32135000Y98890000D03*
X32135000Y98890000D03*
X30865000Y98890000D03*
X30865000Y98890000D03*
X32135000Y98890000D03*
D22*
X23880000Y114130000D03*
X23880000Y111590000D03*
X23880000Y109050000D03*
X23880000Y106510000D03*
X23880000Y103970000D03*
X23880000Y101430000D03*
X23880000Y98890000D03*
X23880000Y96350000D03*
X23880000Y93810000D03*
X23880000Y91270000D03*
X23880000Y88730000D03*
X23880000Y86190000D03*
X23880000Y83650000D03*
X23880000Y81110000D03*
X23880000Y78570000D03*
X23880000Y76030000D03*
X23880000Y73490000D03*
X23880000Y70950000D03*
X23880000Y68410000D03*
X23880000Y65870000D03*
X28960000Y65870000D03*
X31500000Y65870000D03*
X34040000Y65870000D03*
X31500000Y81110000D03*
X34040000Y81110000D03*
X31500000Y78570000D03*
X34040000Y78570000D03*
X31500000Y76030000D03*
X34040000Y76030000D03*
X28960000Y73490000D03*
X31500000Y73490000D03*
X34040000Y73490000D03*
X39120000Y65870000D03*
X39120000Y68410000D03*
X39120000Y70950000D03*
X39120000Y73490000D03*
X39120000Y76030000D03*
X39120000Y78570000D03*
X39120000Y81110000D03*
X39120000Y83650000D03*
X39120000Y86190000D03*
X39120000Y88730000D03*
X39120000Y91270000D03*
X39120000Y93810000D03*
X39120000Y96350000D03*
X39120000Y98890000D03*
X39120000Y101430000D03*
X39120000Y103970000D03*
X39120000Y106510000D03*
X39120000Y109050000D03*
X39120000Y111590000D03*
X39120000Y114130000D03*
D13*
X39090000Y2920000D03*
D14*
X41630000Y2920000D03*
X44170000Y2920000D03*
X46710000Y2920000D03*
D13*
X63240000Y22200000D03*
D14*
X63240000Y19660000D03*
X63240000Y17120000D03*
X63240000Y14580000D03*
X63240000Y12040000D03*
D13*
X42910000Y114120000D03*
D14*
X42910000Y111580000D03*
X42910000Y109040000D03*
X42910000Y106500000D03*
X42910000Y103960000D03*
D27*
X3000000Y3000000D03*
X94000000Y114000000D03*
X51760000Y111880000D03*
X50000000Y46000000D03*
X3000000Y114000000D03*
X94000000Y3000000D03*
D17*
X66790000Y39870000D03*
D28*
X68790000Y39870000D03*
D17*
X36350000Y8600000D03*
D28*
X36350000Y10600000D03*
D13*
X43010000Y77110000D03*
D14*
X43010000Y79650000D03*
X43010000Y82190000D03*
X43010000Y84730000D03*
X43010000Y87270000D03*
X43010000Y89810000D03*
X43010000Y92350000D03*
D13*
X64410000Y109980000D03*
D14*
X61870000Y109980000D03*
X59330000Y109980000D03*
M02*
