M48
;DRILL file {KiCad 4.0.6} date 10/30/17 03:38:28
;FORMAT={2:4/ absolute / inch / keep zeros}
FMAT,2
INCH,TZ
T1C0.013
T2C0.026
T3C0.028
T4C0.028
T5C0.030
T6C0.031
T7C0.039
T8C0.040
T9C0.098
T10C0.122
%
G90
G05
M72
T1
X001953Y038169
X001953Y034232
X001953Y028327
X001953Y024390
X002008Y021535
X005394Y022244
X005890Y038169
X005890Y034232
X005890Y028327
X005890Y024390
X006087Y012776
X006087Y008839
X006654Y019488
X007953Y021339
X008071Y024291
X008335Y041157
X008740Y039685
X009961Y025394
X010024Y012776
X010024Y008839
X010079Y035433
X010945Y042323
X011811Y021772
X012283Y019488
X013110Y008268
X013961Y009823
X013961Y005886
X014094Y020433
X014130Y007669
X014409Y041449
X014409Y033937
X014480Y007236
X015339Y023799
X015598Y019488
X016024Y020748
X016717Y019862
X016953Y014087
X017114Y015087
X017567Y002181
X017898Y009823
X017898Y005886
X019276Y023799
X019528Y040866
X019925Y002181
X020079Y040512
X020457Y035413
X020457Y031476
X020654Y019862
X021894Y038673
X021984Y028803
X022425Y044469
X022425Y007067
X022425Y003130
X022622Y041516
X022819Y034429
X022819Y030492
X023480Y035799
X023496Y011311
X023870Y044504
X023875Y035428
X024303Y012799
X024394Y032461
X024394Y028524
X025102Y012445
X025169Y033906
X025169Y027717
X025575Y032898
X025831Y038673
X026362Y044469
X026362Y007067
X026362Y003130
X026559Y041516
X031598Y044874
X031677Y024980
X031677Y021043
X032465Y043681
X032465Y039744
X032465Y033839
X032465Y029902
X035079Y036220
X035614Y024980
X035614Y021043
X036402Y043681
X036402Y039744
X036402Y033839
X036402Y029902
X037756Y012480
T2
X031524Y000850
X032024Y000850
X032524Y000850
X033024Y000850
T3
X017520Y018421
X017520Y017421
T4
X020866Y010236
X020866Y009449
X020866Y008661
X020866Y007874
X020866Y007087
X020866Y006299
X020866Y005512
X020866Y004724
X020866Y003937
X020866Y003150
X029528Y010236
X029528Y009449
X029528Y008661
X029528Y007874
X029528Y007087
X029528Y006299
X029528Y005512
X029528Y004724
X029528Y003937
X029528Y003150
T5
X012152Y038933
X012152Y038933
X012152Y038933
X012152Y038933
X012652Y038933
X012652Y038933
X012652Y038933
X012652Y038933
T6
X014311Y004173
X014311Y003386
X026295Y015697
X027083Y015697
X030211Y022884
X030211Y022096
X032285Y017616
X032285Y016616
X032285Y015616
X032285Y014616
X033317Y018990
X034104Y018990
X035285Y017616
X035285Y016616
X035285Y015616
X035285Y014616
X037211Y022884
X037211Y022096
T7
X001083Y020406
X001083Y019406
X001083Y018406
X001717Y013811
X001717Y012811
X001717Y011811
X001717Y010811
X001717Y009811
X002717Y013811
X002717Y012811
X002717Y011811
X002717Y010811
X002717Y009811
X005197Y044016
X005197Y043016
X005197Y042016
X005197Y041016
X005197Y040016
X008031Y045197
X008031Y044197
X009402Y044933
X009402Y043933
X009402Y042933
X009402Y041933
X009402Y040933
X009402Y039933
X009402Y038933
X009402Y037933
X009402Y036933
X009402Y035933
X009402Y034933
X009402Y033933
X009402Y032933
X009402Y031933
X009402Y030933
X009402Y029933
X009402Y028933
X009402Y027933
X009402Y026933
X009402Y025933
X009799Y024390
X010799Y024390
X011402Y028933
X011402Y025933
X011799Y024390
X012402Y031933
X012402Y030933
X012402Y029933
X012402Y028933
X012402Y025933
X012799Y024390
X013402Y031933
X013402Y030933
X013402Y029933
X013402Y028933
X013402Y025933
X013799Y024390
X015390Y001150
X015402Y044933
X015402Y043933
X015402Y042933
X015402Y041933
X015402Y040933
X015402Y039933
X015402Y038933
X015402Y037933
X015402Y036933
X015402Y035933
X015402Y034933
X015402Y033933
X015402Y032933
X015402Y031933
X015402Y030933
X015402Y029933
X015402Y028933
X015402Y027933
X015402Y026933
X015402Y025933
X016390Y001150
X016717Y016043
X016894Y044929
X016894Y043929
X016894Y042929
X016894Y041929
X016894Y040929
X016929Y026984
X016929Y025984
X016933Y036358
X016933Y035358
X016933Y034358
X016933Y033358
X016933Y032358
X016933Y031358
X016933Y030358
X017390Y001150
X017717Y016043
X018335Y037402
X018335Y036402
X018335Y035402
X018335Y034402
X018335Y033402
X018335Y032402
X018335Y031402
X018335Y030402
X018335Y029402
X018335Y028402
X018390Y001150
X019335Y037402
X019335Y036402
X019335Y035402
X019335Y034402
X019335Y033402
X019335Y032402
X019335Y031402
X019335Y030402
X019335Y029402
X019335Y028402
X020472Y023063
X020472Y022063
X020472Y021063
X023201Y016087
X023201Y015087
X023201Y014087
X023358Y043299
X024358Y043299
X024898Y008740
X024898Y007740
X024898Y006740
X024898Y005740
X024898Y004740
X025295Y018504
X025358Y043299
X026295Y018504
X026335Y037402
X026335Y036402
X026335Y035402
X026335Y034402
X026335Y033402
X026335Y032402
X026335Y031402
X026335Y030402
X026335Y029402
X026335Y028402
X027295Y018504
X027335Y037402
X027335Y036402
X027335Y035402
X027335Y034402
X027335Y033402
X027335Y032402
X027335Y031402
X027335Y030402
X027335Y029402
X027335Y028402
X028295Y018504
X028642Y036236
X028642Y035236
X030614Y038189
X030709Y027953
X031102Y011909
X031614Y038189
X031709Y027953
X032102Y011909
X032614Y038189
X032709Y027953
X033102Y011909
X033350Y010236
X033555Y005217
X033614Y038189
X033709Y027953
X034102Y011909
X034350Y010236
X034555Y005217
X034614Y038189
X034709Y027953
X035102Y011909
X035614Y038189
X035709Y027953
X036614Y038189
X036709Y027953
T8
X006299Y002362
X006299Y000787
X007299Y002362
X007299Y000787
X008299Y002362
X008299Y000787
X009299Y002362
X009299Y000787
X010299Y002362
X010299Y000787
T9
X026795Y022835
T10
X003543Y020335
X003543Y003287
X018307Y011811
T0
M30
